<?xml version="1.0" standalone="no"?>
<!DOCTYPE svg PUBLIC "-//W3C//DTD SVG 20010904//EN"
 "http://www.w3.org/TR/2001/REC-SVG-20010904/DTD/svg10.dtd">
<svg version="1.0" xmlns="http://www.w3.org/2000/svg"
 width="1000.000000pt" height="1000.000000pt" viewBox="0 0 1000.000000 1000.000000"
 preserveAspectRatio="xMidYMid meet">

<g transform="translate(0.000000,1000.000000) scale(0.100000,-0.100000)"
fill="#000000" stroke="none">
<path d="M4865 8313 c-802 -69 -1446 -639 -1615 -1428 -30 -138 -38 -443 -17
-605 84 -633 423 -1302 857 -1687 213 -189 448 -314 682 -361 l87 -18 -74
-104 c-41 -58 -75 -115 -75 -126 0 -12 9 -33 21 -48 19 -24 26 -26 96 -26 41
0 73 -3 71 -7 -2 -5 -17 -35 -34 -68 -102 -195 -136 -415 -99 -631 23 -133 59
-242 136 -416 87 -197 109 -279 109 -411 0 -203 -74 -377 -225 -531 -50 -51
-56 -62 -53 -94 4 -46 44 -78 85 -68 66 17 226 230 283 378 44 114 60 196 60
315 0 163 -25 254 -149 534 -80 182 -104 284 -105 459 -1 123 2 157 22 223 24
83 73 191 124 270 l30 47 84 0 c73 0 86 3 104 22 34 37 25 66 -55 178 l-75
104 88 18 c454 91 880 456 1196 1024 169 302 299 691 343 1024 21 163 13 457
-16 600 -133 636 -584 1144 -1197 1349 -206 69 -480 102 -689 84z m286 -154
c649 -66 1194 -496 1397 -1104 65 -195 77 -277 77 -530 0 -194 -4 -248 -22
-345 -138 -722 -563 -1381 -1080 -1676 -285 -162 -606 -188 -895 -72 -575 231
-1088 965 -1233 1763 -22 120 -31 434 -16 549 49 363 212 689 476 951 342 340
825 512 1296 464z m-121 -4047 c14 -20 27 -40 28 -44 2 -5 -24 -8 -58 -8 -34
0 -60 3 -58 8 7 17 53 82 58 82 3 0 16 -17 30 -38z"/>
<path d="M4437 7879 c-47 -13 -207 -106 -297 -173 -117 -88 -283 -262 -363
-382 -78 -117 -144 -252 -187 -384 -40 -121 -43 -165 -11 -191 27 -22 70 -25
94 -6 9 6 34 66 56 133 118 364 359 655 681 823 110 57 123 70 123 111 0 53
-43 83 -96 69z"/>
<path d="M4206 201 c-4 -7 -5 -15 -2 -18 9 -9 19 4 14 18 -4 11 -6 11 -12 0z"/>
<path d="M4290 206 c0 -3 5 -17 12 -31 8 -18 14 -22 20 -13 4 7 7 20 7 28 0
10 -3 8 -9 -5 -7 -16 -9 -17 -9 -3 -1 15 -21 38 -21 24z"/>
<path d="M4351 194 c0 -11 3 -14 6 -6 3 7 2 16 -1 19 -3 4 -6 -2 -5 -13z"/>
<path d="M4386 190 c3 -14 10 -29 15 -34 14 -16 10 6 -7 34 l-15 25 7 -25z"/>
<path d="M4411 194 c0 -11 3 -14 6 -6 3 7 2 16 -1 19 -3 4 -6 -2 -5 -13z"/>
<path d="M4474 180 c1 -24 36 -44 36 -21 0 6 -6 8 -14 5 -10 -4 -16 3 -19 18
-4 22 -4 21 -3 -2z"/>
<path d="M4588 203 c6 -2 18 -2 25 0 6 3 1 5 -13 5 -14 0 -19 -2 -12 -5z"/>
<path d="M4641 178 c2 -30 2 -31 6 -5 2 15 9 27 15 27 5 0 8 -6 5 -14 -3 -8 2
-20 11 -28 13 -11 14 -11 7 2 -5 8 -10 22 -10 30 0 8 -8 16 -17 18 -15 3 -18
-3 -17 -30z"/>
<path d="M4731 190 c14 -31 19 -36 19 -24 0 6 -7 19 -16 30 -14 18 -14 18 -3
-6z"/>
<path d="M4776 201 c-4 -5 3 -7 14 -4 23 6 26 13 6 13 -8 0 -17 -4 -20 -9z"/>
<path d="M4840 206 c0 -2 9 -6 20 -9 11 -3 18 -1 14 4 -5 9 -34 13 -34 5z"/>
<path d="M4966 201 c-3 -5 3 -7 14 -4 16 4 20 0 20 -17 0 -18 -4 -21 -21 -17
-16 4 -19 3 -11 -5 17 -17 44 -1 40 24 -3 24 -32 36 -42 19z"/>
<path d="M5031 178 c2 -30 2 -31 6 -5 2 15 9 27 15 27 5 0 8 -6 5 -14 -3 -8 2
-20 11 -28 13 -11 14 -11 7 2 -5 8 -10 22 -10 30 0 8 -8 16 -17 18 -15 3 -18
-3 -17 -30z"/>
<path d="M5095 180 c0 -16 3 -30 8 -30 4 0 7 14 7 30 0 17 -3 30 -7 30 -5 0
-8 -13 -8 -30z"/>
<path d="M5140 200 c0 -5 5 -10 11 -10 5 0 7 5 4 10 -3 6 -8 10 -11 10 -2 0
-4 -4 -4 -10z"/>
<path d="M5216 201 c-4 -5 3 -7 14 -4 23 6 26 13 6 13 -8 0 -17 -4 -20 -9z"/>
<path d="M5288 203 c7 -3 16 -2 19 1 4 3 -2 6 -13 5 -11 0 -14 -3 -6 -6z"/>
<path d="M5340 189 c-7 -11 -10 -23 -7 -25 2 -2 9 7 15 21 14 30 7 33 -8 4z"/>
<path d="M5406 201 c-4 -5 3 -7 14 -4 23 6 26 13 6 13 -8 0 -17 -4 -20 -9z"/>
<path d="M5478 203 c7 -3 16 -2 19 1 4 3 -2 6 -13 5 -11 0 -14 -3 -6 -6z"/>
<path d="M5538 203 c6 -2 18 -2 25 0 6 3 1 5 -13 5 -14 0 -19 -2 -12 -5z"/>
<path d="M5636 201 c-4 -5 3 -7 14 -4 23 6 26 13 6 13 -8 0 -17 -4 -20 -9z"/>
<path d="M5694 195 c-13 -32 23 -63 40 -36 4 5 -3 7 -14 4 -16 -4 -20 0 -20
17 0 17 4 21 20 17 11 -3 18 -1 14 4 -8 14 -34 11 -40 -6z"/>
<path d="M5760 178 c0 -36 4 -35 14 5 4 16 2 27 -4 27 -5 0 -10 -14 -10 -32z"/>
<path d="M5791 187 c-13 -21 -12 -21 5 -5 10 10 16 20 13 22 -3 3 -11 -5 -18
-17z"/>
<path d="M4180 178 c0 -9 5 -20 10 -23 13 -8 13 5 0 25 -8 13 -10 13 -10 -2z"/>
<path d="M4226 174 c-4 -9 -4 -19 -1 -22 2 -3 7 3 11 12 4 9 4 19 1 22 -2 3
-7 -3 -11 -12z"/>
<path d="M4707 171 c-4 -17 -3 -21 5 -13 5 5 8 16 6 23 -3 8 -7 3 -11 -10z"/>
<path d="M5360 176 c0 -8 4 -17 9 -20 5 -4 7 3 4 14 -6 23 -13 26 -13 6z"/>
<path d="M5478 183 c7 -3 16 -2 19 1 4 3 -2 6 -13 5 -11 0 -14 -3 -6 -6z"/>
<path d="M4270 166 c0 -9 5 -16 10 -16 6 0 10 4 10 9 0 6 -4 13 -10 16 -5 3
-10 -1 -10 -9z"/>
<path d="M4367 173 c-4 -3 -7 -11 -7 -17 0 -6 5 -5 12 2 6 6 9 14 7 17 -3 3
-9 2 -12 -2z"/>
<path d="M5166 167 c3 -10 9 -15 12 -12 3 3 0 11 -7 18 -10 9 -11 8 -5 -6z"/>
<path d="M5246 168 c5 -8 0 -9 -16 -5 -16 4 -20 3 -12 -5 6 -6 18 -8 26 -5 18
7 22 27 5 27 -5 0 -7 -5 -3 -12z"/>
<path d="M5436 168 c5 -8 0 -9 -16 -5 -16 4 -20 3 -12 -5 6 -6 18 -8 26 -5 18
7 22 27 5 27 -5 0 -7 -5 -3 -12z"/>
<path d="M5555 171 c3 -5 -2 -12 -10 -14 -12 -4 -12 -5 1 -3 19 1 32 26 14 26
-6 0 -9 -4 -5 -9z"/>
<path d="M4778 158 c5 -5 16 -8 23 -6 8 3 3 7 -10 11 -17 4 -21 3 -13 -5z"/>
<path d="M4855 160 c-16 -7 -17 -9 -3 -9 9 -1 20 4 23 9 7 11 7 11 -20 0z"/>
<path d="M5638 158 c5 -5 16 -8 23 -6 8 3 3 7 -10 11 -17 4 -21 3 -13 -5z"/>
<path d="M4548 153 c7 -3 16 -2 19 1 4 3 -2 6 -13 5 -11 0 -14 -3 -6 -6z"/>
<path d="M4918 153 c7 -3 16 -2 19 1 4 3 -2 6 -13 5 -11 0 -14 -3 -6 -6z"/>
<path d="M5478 153 c7 -3 16 -2 19 1 4 3 -2 6 -13 5 -11 0 -14 -3 -6 -6z"/>
</g>
</svg>
