<svg width="32" height="32" viewBox="0 0 32 32" fill="none" xmlns="http://www.w3.org/2000/svg">
<g clip-path="url(#clip0_5_1606)">
<path fill-rule="evenodd" clip-rule="evenodd" d="M16 32C24.8365 32 32 24.8365 32 16C32 7.16346 24.8365 0 16 0C7.16346 0 0 7.16346 0 16C0 24.8365 7.16346 32 16 32ZM17.0979 8.32467C16.2928 8.34711 15.4432 8.54093 14.8431 9.11114C14.3475 9.56957 14.0978 10.2368 14.0417 10.9038C14.0246 11.3808 14.027 11.8591 14.0294 12.3373C14.0313 12.6958 14.0331 13.0543 14.0267 13.412C13.8063 13.4136 13.5852 13.4132 13.364 13.4127C13.0691 13.4121 12.7739 13.4115 12.48 13.4158C12.48 13.7013 12.4804 13.9871 12.4808 14.2733C12.4817 14.8464 12.4825 15.4206 12.48 15.9949C12.7739 15.9991 13.0691 15.9985 13.3641 15.9979C13.5852 15.9974 13.8063 15.997 14.0267 15.9986C14.0317 17.1367 14.0308 18.2747 14.0299 19.4127C14.0287 20.8351 14.0276 22.2576 14.0379 23.68C14.6428 23.6757 15.2464 23.6763 15.8502 23.677C16.303 23.6774 16.756 23.6779 17.2097 23.6763C17.2134 22.396 17.2125 21.1167 17.2115 19.8374C17.2106 18.5581 17.2097 17.2788 17.2134 15.9986C17.5185 15.997 17.8236 15.9974 18.1286 15.9979C18.5354 15.9985 18.9422 15.9991 19.349 15.9949C19.4757 15.1376 19.5837 14.2728 19.6433 13.4045C19.2409 13.4027 18.8384 13.4027 18.4358 13.4027C18.0333 13.4027 17.6308 13.4027 17.2284 13.4008C17.2284 13.2508 17.2281 13.1007 17.2279 12.9507C17.2272 12.5007 17.2265 12.0508 17.2321 11.6007C17.2955 11.254 17.6532 10.9893 17.9998 11.0118H19.6471C19.6508 10.1136 19.6508 9.21914 19.6471 8.32093C19.4347 8.32093 19.2223 8.32071 19.0099 8.32048C18.3726 8.31978 17.7353 8.31907 17.0979 8.32467Z" fill="white"/>
</g>
<defs>
<clipPath id="clip0_5_1606">
<rect width="32" height="32" fill="white"/>
</clipPath>
</defs>
</svg>
