<svg width="32" height="33" viewBox="0 0 32 33" fill="none" xmlns="http://www.w3.org/2000/svg">
<g clip-path="url(#clip0_5_1610)">
<path d="M14.7367 1.43224C12.7421 1.57624 10.8861 2.10957 8.90207 3.12291C7.52074 3.82691 6.40607 4.62691 5.37674 5.66157C3.0834 7.96024 1.56874 11.0162 1.10474 14.2536C0.966071 15.2082 0.966071 17.2882 1.0994 18.1736C1.6114 21.4536 3.05674 24.4082 5.21674 26.5789C7.5154 28.8829 10.4594 30.3709 13.7287 30.8722C14.7474 31.0322 16.6727 31.0429 17.6434 30.8989C21.4834 30.3389 24.8594 28.4989 27.1101 25.7416C28.2301 24.3656 28.9607 23.1229 29.5901 21.5069C30.2674 19.7682 30.5767 18.0989 30.5767 16.2002C30.5767 13.8109 30.0861 11.7522 29.0087 9.66691C27.6754 7.07491 26.1501 5.31491 24.0327 3.91757C21.8354 2.46691 19.3394 1.61357 16.7581 1.43224C15.9047 1.36824 15.6327 1.36824 14.7367 1.43224ZM22.7474 10.4456C22.9447 10.5896 23.0567 10.8402 23.0567 11.1549C23.0567 11.4696 20.5767 23.1442 20.4434 23.4376C20.2567 23.8589 19.8301 23.9816 19.3714 23.7416C19.2541 23.6829 16.1607 21.4216 15.6114 20.9896C15.5741 20.9629 15.2327 21.2562 14.6247 21.8429C13.6967 22.7389 13.4514 22.9309 13.1794 23.0002C13.0354 23.0376 13.0301 23.0322 13.0301 22.8242C13.0301 22.7069 13.0887 21.8482 13.1634 20.9149C13.2594 19.7202 13.3181 19.1976 13.3661 19.1602C13.4354 19.1069 16.3741 16.4242 18.9767 14.0402C19.6807 13.3896 20.2567 12.8296 20.2567 12.7869C20.2567 12.7389 20.1927 12.7016 20.0967 12.6909C19.9634 12.6802 19.1687 13.1602 15.5794 15.4162L11.2274 18.1576L9.23274 17.5496C8.1394 17.2136 7.19007 16.9042 7.12607 16.8616C7.0354 16.8029 7.0034 16.7336 7.0034 16.5896C7.0034 16.2802 7.2434 16.0989 8.13407 15.7576C9.07807 15.3896 20.4007 11.0162 21.4301 10.6216C22.2567 10.3069 22.5021 10.2749 22.7474 10.4456Z" fill="white"/>
</g>
<defs>
<clipPath id="clip0_5_1610">
<rect width="32" height="32" fill="white" transform="translate(0 0.427734)"/>
</clipPath>
</defs>
</svg>
